<svg id="eLh2CxuNanR1" xmlns="http://www.w3.org/2000/svg" xmlns:xlink="http://www.w3.org/1999/xlink" viewBox="0 0 512 512" shape-rendering="geometricPrecision" text-rendering="geometricPrecision"><g transform="matrix(.1 0 0-.1 0 512)"><path d="M640,5110c-80-17-185-76-235-133-52-58-116-184-136-267-21-82-21-4218,0-4300c20-83,84-209,136-267C459,81,563,26,655,9c124-23,309,17,455,98c231,130,3421,1959,3467,1989c78,51,192,167,230,234c84,149,84,311,0,460-38,67-152,183-230,234-46,30-3236,1859-3467,1989-147,82-345,123-470,97Z" fill="#c8c8c8"/></g></svg>
