<svg id="visual" viewBox="0 0 960 540" width="960" height="540" xmlns="http://www.w3.org/2000/svg" xmlns:xlink="http://www.w3.org/1999/xlink" version="1.1"><rect x="0" y="0" width="960" height="540" fill="#001122"></rect><defs><linearGradient id="grad1_0" x1="43.8%" y1="0%" x2="100%" y2="100%"><stop offset="14.444444444444446%" stop-color="#001122" stop-opacity="1"></stop><stop offset="85.55555555555554%" stop-color="#001122" stop-opacity="1"></stop></linearGradient></defs><defs><linearGradient id="grad2_0" x1="0%" y1="0%" x2="56.3%" y2="100%"><stop offset="14.444444444444446%" stop-color="#001122" stop-opacity="1"></stop><stop offset="85.55555555555554%" stop-color="#001122" stop-opacity="1"></stop></linearGradient></defs><g transform="translate(960, 0)"><path d="M0 432C-47.3 400.8 -94.5 369.6 -145 350.2C-195.6 330.7 -249.3 323.1 -294.9 294.9C-340.4 266.7 -377.6 217.9 -399.1 165.3C-420.6 112.7 -426.3 56.4 -432 0L0 0Z" fill="#335EEA"></path></g><g transform="translate(0, 540)"><path d="M0 -432C60.3 -429.8 120.6 -427.6 165.3 -399.1C210 -370.6 239.2 -315.7 272.2 -272.2C305.3 -228.7 342.3 -196.6 369.6 -153.1C396.8 -109.6 414.4 -54.8 432 0L0 0Z" fill="#335EEA"></path></g></svg>